<svg version="1.1" id="Layer_1" xmlns="http://www.w3.org/2000/svg" xmlns:xlink="http://www.w3.org/1999/xlink" x="0px" y="0px"
	 width="100%" viewBox="0 0 1024 1024" enable-background="new 0 0 1024 1024" xml:space="preserve">
<path fill="#000000" opacity="1.000000" stroke="none" 
	d="
M572.923767,711.088989 
	C568.372742,714.253601 563.675354,715.427124 558.498901,715.414429 
	C527.667603,715.338806 496.836090,715.404358 466.004761,715.353394 
	C453.310303,715.332397 444.170349,706.683716 442.593536,693.996338 
	C441.120392,682.143188 439.198303,670.345032 437.411774,658.532104 
	C437.017578,655.925476 435.788788,654.191772 432.920990,653.254944 
	C416.447937,647.873108 400.117828,642.083435 385.336151,632.777527 
	C383.086670,631.361267 381.727661,632.380371 380.034698,633.603699 
	C369.504791,641.212402 358.926208,648.753601 348.369965,656.325867 
	C338.942810,663.088135 325.556396,662.134705 317.645355,654.201111 
	C297.289276,633.786926 276.927032,613.378784 256.524719,593.010742 
	C244.166367,580.673157 243.184921,569.970459 253.198456,555.783447 
	C259.634094,546.665527 265.939697,537.454529 272.476837,528.410522 
	C274.035126,526.254578 274.430084,524.712830 273.028168,522.213013 
	C265.266388,508.373383 259.072937,493.829437 254.564117,478.610840 
	C253.375839,474.600098 251.333847,472.810883 246.986603,472.179230 
	C235.495392,470.509552 224.057220,468.373444 212.688202,465.992035 
	C200.819550,463.506042 193.666290,454.222504 193.653275,441.912384 
	C193.621552,411.914337 194.029892,381.908936 193.462158,351.921631 
	C193.225723,339.433655 201.757080,328.841919 215.481659,326.654694 
	C226.621170,324.879456 237.686264,322.638794 248.821793,320.835663 
	C251.358948,320.424805 252.585114,319.314545 253.400589,317.042114 
	C258.973938,301.511292 265.100555,286.209869 273.126617,271.753479 
	C274.241669,269.745087 273.739258,268.401764 272.639465,266.773163 
	C265.836426,256.699127 259.768250,246.148941 252.508499,236.362610 
	C243.583832,224.331985 244.451187,212.974487 255.005753,202.297729 
	C275.858337,181.203735 296.791077,160.188828 317.727356,139.177780 
	C325.824097,131.052109 338.638763,130.186081 348.349548,137.096237 
	C358.662628,144.435028 368.984192,151.766754 379.131073,159.330948 
	C381.862885,161.367447 383.901123,161.299133 386.733856,159.670914 
	C400.944702,151.502625 416.026855,145.292847 431.759735,140.771881 
	C435.655609,139.652374 437.091614,137.411896 437.597412,133.811996 
	C439.282471,121.819939 440.927826,109.820351 442.808868,97.858330 
	C444.641663,86.203178 454.579590,77.868385 467.283936,77.792183 
	C497.614288,77.610275 527.947327,77.590927 558.277405,77.791885 
	C572.076904,77.883316 581.739075,87.171173 583.229614,101.478455 
	C584.401245,112.723709 586.903442,123.737152 588.454529,134.909531 
	C588.854675,137.791656 590.344299,139.645187 593.291870,140.541245 
	C609.748169,145.544052 625.523926,152.207031 640.618652,160.447067 
	C642.968323,161.729721 644.562256,160.979126 646.453064,159.570221 
	C656.602356,152.007416 666.717712,144.391052 677.054688,137.090256 
	C687.393738,129.787918 700.341797,131.044708 708.997375,139.711304 
	C728.896912,159.636276 748.826050,179.531769 768.745911,199.436417 
	C773.125366,203.812546 777.199524,208.301254 779.039612,214.510712 
	C781.575989,223.069489 778.527466,230.092148 773.839539,236.906448 
	C767.231079,246.512283 760.805481,256.244049 754.178406,265.836792 
	C752.463501,268.319122 752.304626,270.339661 753.766052,273.120544 
	C760.980286,286.847809 767.140442,301.047882 771.750977,315.876221 
	C772.689697,318.895416 774.188782,320.364624 777.571838,320.915558 
	C789.691650,322.889557 801.748962,325.262238 813.802429,327.624023 
	C824.460693,329.712463 831.942261,338.684509 832.378967,349.404663 
	C833.593384,379.221222 832.827026,409.048920 832.852356,438.870331 
	C832.865234,454.017426 826.937744,462.839081 814.598572,465.680389 
	C803.782104,468.171021 792.738159,469.766724 781.730347,471.293457 
	C776.532837,472.014343 773.251343,473.296539 771.529480,479.166656 
	C767.167236,494.037903 761.203186,508.365753 753.514343,521.887085 
	C752.151306,524.283997 752.396057,526.155701 753.887207,528.298523 
	C759.977295,537.050293 765.805237,545.989563 772.060303,554.620178 
	C782.902649,569.580383 782.024658,580.605896 768.992493,593.523499 
	C749.110107,613.231201 728.983948,632.719482 709.791504,653.083313 
	C702.323425,661.007202 685.851074,662.866333 676.931335,656.040039 
	C667.015259,648.451294 656.643677,641.460510 646.598755,634.035828 
	C644.155701,632.230042 642.273010,631.820862 639.480286,633.396484 
	C624.632568,641.773804 608.989075,648.363953 592.611450,653.084656 
	C589.379211,654.016174 588.999268,656.288147 588.579651,658.638611 
	C586.450806,670.565125 584.171997,682.478027 582.558289,694.478149 
	C581.624634,701.420959 578.585999,706.686707 572.923767,711.088989 
M430.914276,176.540298 
	C417.578979,181.417892 404.882294,187.605637 392.750824,194.985107 
	C382.662231,201.121933 379.066101,200.877884 369.692017,193.988434 
	C359.493256,186.492889 349.171875,179.162506 339.045654,171.571075 
	C336.323822,169.530579 334.573883,169.796143 332.262817,172.129471 
	C316.906036,187.634094 301.482178,203.073120 285.969513,218.421646 
	C283.460968,220.903641 283.419708,222.827545 285.349243,225.704346 
	C292.864014,236.908463 300.109772,248.292587 307.529877,259.560822 
	C312.041351,266.411987 312.066742,272.823334 307.434021,279.915924 
	C296.042664,297.355957 288.572266,316.560974 283.461517,336.702209 
	C280.829071,347.076538 276.733704,350.763702 266.110443,352.381592 
	C254.621384,354.131317 243.164780,356.098145 231.665512,357.774719 
	C227.639771,358.361664 226.203644,360.062256 226.246063,364.304138 
	C226.465942,386.297607 226.466446,408.295593 226.248642,430.289032 
	C226.207855,434.405731 227.831268,435.880920 231.472794,436.449097 
	C242.461487,438.163574 253.423431,440.049530 264.412598,441.760864 
	C276.096649,443.580414 280.409302,447.249603 283.187103,458.605408 
	C288.138489,478.846680 296.309998,497.706177 307.420197,515.280334 
	C311.947418,522.441528 312.007721,529.034180 307.038025,536.063721 
	C299.636292,546.533325 292.733673,557.354736 285.415253,567.885071 
	C283.180267,571.100891 283.430176,573.177063 286.268158,575.945557 
	C297.236877,586.645569 307.929260,597.628418 318.773102,608.457336 
	C324.167175,613.843994 329.666534,619.125183 335.150116,624.485291 
	C336.408875,623.687683 337.272980,623.207581 338.064667,622.628418 
	C349.218781,614.468872 360.416321,606.367249 371.489685,598.099426 
	C378.095093,593.167542 384.492706,593.331787 391.351288,597.647217 
	C410.804016,609.887207 431.869507,618.460815 453.981628,624.530334 
	C462.526794,626.875916 467.052094,632.101440 468.367188,640.971924 
	C470.215424,653.438232 472.438293,665.851074 474.137665,678.336243 
	C474.618347,681.867920 476.058594,682.697937 479.264862,682.685059 
	C501.426788,682.595825 523.589722,682.559753 545.751038,682.701538 
	C549.641663,682.726440 551.094177,681.000244 551.591309,677.529541 
	C553.283997,665.710327 555.175598,653.918579 556.762146,642.085571 
	C558.008118,632.792847 562.167847,626.220947 571.781067,623.812561 
	C594.215759,618.192139 615.427490,609.562805 635.090210,597.330505 
	C642.047180,593.002502 648.462463,593.320740 654.966248,598.188782 
	C665.633911,606.173401 676.505798,613.888000 687.078918,621.993896 
	C690.019104,624.247986 691.716736,623.943054 694.169250,621.467957 
	C704.721802,610.818665 715.625305,600.512207 726.029297,589.722473 
	C731.764404,583.774719 738.292664,578.528931 743.135925,572.010925 
	C734.568115,559.128784 726.259521,546.660950 717.978394,534.174805 
	C714.013489,528.196594 713.523621,522.101318 717.624023,515.967102 
	C730.081787,497.329803 738.106018,476.798340 743.492798,455.166077 
	C745.301941,447.900787 749.613525,443.619690 757.024597,442.339569 
	C769.290894,440.220917 781.495056,437.679321 793.816528,435.975464 
	C798.735413,435.295288 799.740295,433.196289 799.711914,428.840179 
	C799.571899,407.345306 799.496460,385.847229 799.760925,364.354767 
	C799.820190,359.535889 797.881836,358.016907 793.602478,357.354523 
	C781.965210,355.553345 770.416260,353.133545 758.748596,351.592682 
	C749.862610,350.419098 745.058899,345.490479 742.996033,337.265808 
	C737.855530,316.770172 730.141113,297.335907 718.574829,279.607269 
	C713.739014,272.195007 713.986206,265.500153 718.944580,258.391479 
	C726.372803,247.742020 733.390015,236.803741 740.912659,226.223404 
	C743.273499,222.902969 743.519165,220.854568 740.447815,217.855377 
	C724.831970,202.606445 709.380188,187.188431 693.969604,171.731277 
	C691.505920,169.260132 689.633484,168.992462 686.758545,171.207779 
	C676.469238,179.136429 665.979553,186.804657 655.585083,194.597366 
	C647.535156,200.632370 642.717651,200.893173 634.139771,195.583267 
	C614.882141,183.662247 594.180237,175.127731 572.343079,169.290848 
	C564.107788,167.089630 559.036865,162.065399 557.616760,153.579849 
	C555.591187,141.475632 553.641235,129.358658 551.584412,117.259804 
	C551.072754,114.249695 551.160339,110.957260 546.353149,110.997246 
	C524.025757,111.182991 501.696228,111.155960 479.367706,111.095291 
	C476.447571,111.087357 474.991302,112.389214 474.558502,115.009514 
	C472.774780,125.808395 470.680573,136.574677 469.417572,147.436310 
	C467.718811,162.044769 463.776703,167.032669 449.637360,170.342667 
	C443.458862,171.789047 437.545044,173.999969 430.914276,176.540298 
z"/>
<path fill="#000000" opacity="1.000000" stroke="none" 
	d="
M352.136047,756.617737 
	C372.963654,762.406555 390.347412,772.852905 399.304840,792.657898 
	C412.738922,822.360901 412.646637,852.181641 394.049561,880.019409 
	C381.991333,898.069214 363.724152,907.213318 342.621490,910.262695 
	C323.772339,912.986389 304.719360,910.995056 285.761047,911.356995 
	C272.659088,911.607056 272.654816,911.405579 272.654846,898.373047 
	C272.654968,852.232727 272.653168,806.092346 272.658051,759.952026 
	C272.658813,752.713501 272.674225,752.626404 279.673248,752.710876 
	C298.644958,752.939880 317.647644,751.870972 336.577606,753.730042 
	C341.671448,754.230225 346.681061,755.588013 352.136047,756.617737 
M304.353333,822.499939 
	C304.353729,841.152222 304.436859,859.805115 304.287476,878.456177 
	C304.256134,882.367188 305.595215,883.806519 309.487488,883.717651 
	C317.643677,883.531433 325.859528,884.242126 333.955841,883.519592 
	C349.112549,882.166992 361.516449,875.425415 368.554474,861.484985 
	C374.827148,849.060547 376.507233,835.661987 374.680847,821.747559 
	C371.974396,801.128723 360.466156,787.320862 341.239685,783.000427 
	C330.446136,780.574951 319.394714,781.305481 308.423401,781.579102 
	C305.286163,781.657349 304.274475,783.467346 304.306122,786.527405 
	C304.426605,798.183838 304.354279,809.842224 304.353333,822.499939 
z"/>
<path fill="#000000" opacity="1.000000" stroke="none" 
	d="
M684.221985,806.977112 
	C691.406738,830.731018 698.493530,854.096558 705.738159,877.982849 
	C707.732971,876.303955 707.887756,874.237488 708.435669,872.502686 
	C716.145935,848.090637 723.869812,823.682007 731.348633,799.198730 
	C732.514404,795.382446 734.140381,793.653259 738.256165,793.813721 
	C745.075073,794.079590 751.912415,793.838257 758.741150,793.899536 
	C764.586487,793.951965 765.308044,794.885681 763.325684,800.419250 
	C753.172241,828.762695 743.029053,857.110291 732.704712,885.391663 
	C726.607056,902.095032 721.056091,918.984924 712.672729,934.828796 
	C705.892334,947.643311 689.516357,957.782593 670.015808,955.479370 
	C657.497864,954.000916 657.521118,953.799622 659.582275,941.365356 
	C660.230286,937.455566 660.574707,933.475464 662.121155,929.766968 
	C663.891052,929.109741 665.497253,929.672791 667.084412,930.000671 
	C677.550598,932.162659 687.519653,925.627075 689.520203,915.321167 
	C689.899170,913.369141 689.144897,911.693115 688.530334,910.002014 
	C675.349915,873.732544 662.136536,837.475159 648.926941,801.216248 
	C646.557434,794.712341 647.020630,793.971436 653.817871,793.907654 
	C660.646667,793.843567 667.492493,794.153748 674.299805,793.761047 
	C678.804626,793.501038 681.122742,795.132324 682.032654,799.419434 
	C682.548035,801.847778 683.415222,804.201477 684.221985,806.977112 
z"/>
<path fill="#000000" opacity="1.000000" stroke="none" 
	d="
M489.943542,794.811218 
	C497.780212,794.763977 497.752472,795.141113 497.815826,787.886414 
	C497.850464,783.918213 498.327728,779.910889 499.035034,775.998901 
	C502.368011,757.564392 514.987000,751.006836 532.005371,748.776306 
	C539.239929,747.828064 546.601074,748.085938 553.846863,749.630859 
	C556.188232,750.130066 557.359985,751.196838 557.335754,753.633789 
	C557.282776,758.966431 557.295288,764.299744 557.304871,769.632812 
	C557.309875,772.427979 556.218445,773.503113 553.263123,772.892456 
	C550.847290,772.393311 548.305298,772.520264 545.822632,772.326416 
	C531.784851,771.230225 528.924194,782.337402 529.382324,791.928101 
	C529.504028,794.475830 531.190796,794.784363 533.184265,794.780151 
	C539.017517,794.767883 544.854065,794.885193 550.682678,794.718079 
	C554.123840,794.619507 555.498474,795.948669 555.380981,799.403625 
	C555.211060,804.397888 555.197205,809.407349 555.383545,814.400391 
	C555.525024,818.190186 553.759583,819.389343 550.254517,819.293823 
	C545.258179,819.157776 540.239380,819.500610 535.260315,819.176575 
	C530.752808,818.883179 529.205933,820.308655 529.244995,825.036438 
	C529.461060,851.201294 529.351318,877.368835 529.345337,903.535461 
	C529.343567,911.390625 529.331909,911.394043 521.258240,911.401611 
	C515.424927,911.407043 509.578156,911.157532 503.762543,911.478333 
	C499.098907,911.735657 497.615631,909.848938 497.649109,905.389038 
	C497.782806,887.556763 497.693115,869.722900 497.688599,851.889587 
	C497.686249,842.556274 497.583527,833.221130 497.744385,823.890564 
	C497.804230,820.419739 496.537506,819.295105 493.091217,819.218506 
	C479.683228,818.920654 479.685486,818.818970 479.677155,805.124451 
	C479.677063,804.957764 479.676880,804.791138 479.676788,804.624451 
	C479.671509,794.807434 479.671509,794.807434 489.943542,794.811218 
z"/>
<path fill="#000000" opacity="1.000000" stroke="none" 
	d="
M639.246033,759.078308 
	C639.214722,762.725159 639.145813,765.889954 639.164062,769.054260 
	C639.186279,772.913330 637.273560,774.087585 633.731689,773.092041 
	C629.770081,771.978516 625.846313,772.089417 621.938171,773.365601 
	C614.873108,775.672607 609.662170,785.956543 611.929688,793.007202 
	C612.573669,795.009399 614.153625,794.731873 615.588867,794.742737 
	C620.919373,794.783142 626.260498,794.954163 631.577942,794.685486 
	C636.039368,794.460083 637.559631,796.409912 637.339294,800.605835 
	C637.129822,804.594971 637.276733,808.601440 637.159973,812.597107 
	C636.988098,818.474731 636.191162,819.244080 630.459839,819.271912 
	C625.962097,819.293762 621.448975,819.491943 616.970459,819.194214 
	C612.548645,818.900330 611.244080,820.636780 611.270752,824.965271 
	C611.430237,850.952209 611.372437,876.940613 611.336487,902.928467 
	C611.323608,912.257812 612.224792,911.337097 602.620850,911.401001 
	C597.290222,911.436462 591.946960,911.184265 586.632080,911.476074 
	C582.116577,911.723999 580.535461,910.174805 580.568481,905.518677 
	C580.755249,879.198914 580.665100,852.877136 580.662170,826.556091 
	C580.661316,819.278259 580.650085,819.298279 573.233765,819.265259 
	C561.821655,819.214355 562.658386,820.556091 562.652283,808.915100 
	C562.645142,795.251038 562.647827,795.148804 576.052979,794.850891 
	C579.504578,794.774109 580.780640,793.640259 580.706177,790.172913 
	C580.556396,783.200134 580.220337,776.120239 582.770813,769.455627 
	C588.371399,754.820740 600.761475,750.304443 614.797913,748.759399 
	C619.730408,748.216492 624.775146,748.572266 629.764404,748.693115 
	C638.464417,748.903870 639.279114,749.815125 639.246033,759.078308 
z"/>
<path fill="#000000" opacity="1.000000" stroke="none" 
	d="
M431.634491,818.000000 
	C431.639282,811.505310 431.754669,805.507812 431.606110,799.516907 
	C431.522217,796.132446 432.767334,794.679443 436.245819,794.744751 
	C443.403503,794.879211 450.567810,794.874634 457.725098,794.723267 
	C461.217712,794.649414 462.383911,796.131409 462.378143,799.497253 
	C462.316895,835.132385 462.312469,870.767822 462.388428,906.402893 
	C462.396088,909.993225 461.183838,911.538147 457.465149,911.437988 
	C450.809174,911.258728 444.131805,911.128845 437.488647,911.469910 
	C432.786865,911.711426 431.547729,909.897644 431.570953,905.423096 
	C431.721252,876.449402 431.640015,847.474487 431.634491,818.000000 
z"/>
<path fill="#000000" opacity="1.000000" stroke="none" 
	d="
M464.671906,773.251038 
	C459.909027,780.713623 452.321533,783.812256 443.254883,782.143311 
	C436.116760,780.829285 431.079742,777.297852 429.481842,769.641724 
	C427.934021,762.225647 429.992615,755.357544 435.506256,751.402527 
	C442.210938,746.593079 452.282166,746.455444 459.056763,751.080505 
	C464.791534,754.995667 467.620789,762.496460 465.989532,769.598206 
	C465.730164,770.727478 465.249359,771.805847 464.671906,773.251038 
z"/>
<path fill="#000000" opacity="1.000000" stroke="none" 
	d="
M428.525787,465.497192 
	C424.002625,461.041382 419.374268,457.131989 415.553497,452.549316 
	C406.429291,441.605682 411.253174,427.058594 424.851654,424.324646 
	C431.710419,422.945709 437.160339,426.051788 441.420532,431.292938 
	C459.972870,454.117065 484.463287,465.553009 513.342163,465.324921 
	C541.374756,465.103516 565.380371,453.852203 583.805969,432.128082 
	C592.983643,421.307434 607.070190,421.414703 612.864136,432.584564 
	C616.141113,438.902100 615.301331,447.264801 610.394287,452.655365 
	C589.900452,475.168640 564.882263,490.075623 534.795288,495.262817 
	C494.978943,502.127472 459.697174,491.475281 428.525787,465.497192 
z"/>
<path fill="#000000" opacity="1.000000" stroke="none" 
	d="
M428.994568,375.366272 
	C410.008575,380.630127 393.546906,369.782837 390.665405,350.721985 
	C389.393677,342.309540 390.071594,334.152405 392.914856,326.240814 
	C397.998688,312.094696 409.163788,305.525238 425.571045,306.681274 
	C436.437195,307.446899 447.356720,317.618744 450.159241,329.843201 
	C452.917786,341.875671 451.138611,353.271637 444.646149,363.816010 
	C441.085327,369.599030 435.663544,373.035156 428.994568,375.366272 
z"/>
<path fill="#000000" opacity="1.000000" stroke="none" 
	d="
M635.332336,335.270203 
	C635.463806,343.722534 635.655823,351.675140 632.240662,359.236328 
	C626.359741,372.256653 614.438171,378.592377 599.637756,376.340973 
	C587.469421,374.489960 577.296082,363.171265 575.542419,350.333557 
	C574.533264,342.945862 574.770630,335.767426 576.651672,328.625366 
	C580.466919,314.139282 592.056335,306.221100 608.645874,306.653473 
	C620.749817,306.968933 631.593628,316.747742 634.419983,329.917114 
	C634.767273,331.535370 635.025208,333.172821 635.332336,335.270203 
z"/>
</svg>